# xmcd CD database file
#
# Track frame offsets:
#	150
#	16015
#	37442
#	53370
#	69755
#	86867
#	105772
#	122557
#	138600
#	156137
#	173775
#	189520
#	207300
#	227617
#	243737
#	261602
#	277787
#	305900
#
# Disc length: 4457 seconds
#
# Revision: 3
# Processed by: cddbd v1.5.2PL0 Copyright (c) Steve Scherf et al.
# Submitted via: CDex 1.51
#
DISCID=f8116712
DTITLE=Orchestral Manoeuvres In The Dark - The Best of OMD
DYEAR=1988
DGENRE=New Age
TTITLE0=Orchestral Manoeuvres In The Dark - Electricity
TTITLE1=Orchestral Manoeuvres In The Dark - Messages
TTITLE2=Orchestral Manoeuvres In The Dark - Enola Gay
TTITLE3=Orchestral Manoeuvres In The Dark - Souvenir
TTITLE4=Orchestral Manoeuvres In The Dark - Joan Of Arc
TTITLE5=Orchestral Manoeuvres In The Dark - Maid Of Orleans
TTITLE6=Orchestral Manoeuvres In The Dark - Telegraph
TTITLE7=Orchestral Manoeuvres In The Dark - Tesla Girls
TTITLE8=Orchestral Manoeuvres In The Dark - Locomotion
TTITLE9=Orchestral Manoeuvres In The Dark - Talking Loud And Clear
TTITLE10=Orchestral Manoeuvres In The Dark - So In Love
TTITLE11=Orchestral Manoeuvres In The Dark - Secret
TTITLE12=Orchestral Manoeuvres In The Dark - If You Leave
TTITLE13=Orchestral Manoeuvres In The Dark - Forever Live And Die
TTITLE14=Orchestral Manoeuvres In The Dark - Dreaming
TTITLE15=Orchestral Manoeuvres In The Dark - Genetic Engineering
TTITLE16=Orchestral Manoeuvres In The Dark - We Love You (12" Version)
TTITLE17=Orchestral Manoeuvres In The Dark - La Femme Accident (12" Version)
EXTD=YEAR: 1988
EXTT0=
EXTT1=
EXTT2=
EXTT3=
EXTT4=
EXTT5=
EXTT6=
EXTT7=
EXTT8=
EXTT9=
EXTT10=
EXTT11=
EXTT12=
EXTT13=
EXTT14=
EXTT15=
EXTT16=
EXTT17=
PLAYORDER=
